<svg version="1.0" xmlns="http://www.w3.org/2000/svg"
 width="31.88" height="32" viewBox="0 0 166.000000 187.000000"
 preserveAspectRatio="xMidYMid meet">
<g transform="translate(0.000000,187.000000) scale(0.100000,-0.100000)"
fill="#000000" stroke="none">
<path d="M800 1850 c42 -5 47 -7 20 -8 -61 -3 -152 -31 -230 -69 -59 -30 -97
-59 -175 -138 l-100 -100 75 -6 c41 -3 86 -10 100 -16 24 -10 23 -11 -20 -18
-130 -21 -252 -94 -297 -177 -26 -49 -23 -215 6 -332 29 -117 61 -178 128
-241 47 -45 56 -60 68 -114 31 -132 105 -228 220 -286 81 -40 77 -43 -25 -14
-137 37 -246 116 -303 217 -23 40 -25 42 -31 20 -12 -46 -6 -129 15 -183 72
-192 311 -328 594 -336 l70 -3 -80 -6 c-79 -6 -80 -6 -19 -8 230 -7 479 81
620 219 59 57 87 109 105 191 20 93 -1 183 -63 269 -9 13 -5 25 21 63 87 127
136 398 96 533 -10 32 -31 67 -59 98 -25 26 -56 71 -70 99 -58 117 -200 250
-328 305 -73 31 -192 51 -297 49 -85 -1 -90 -2 -41 -8z m250 -414 c125 -24
184 -52 240 -113 42 -46 50 -61 52 -96 8 -203 -30 -357 -111 -450 -50 -56
-170 -111 -266 -123 -22 -2 -61 -9 -87 -15 -26 -6 -51 -8 -56 -5 -5 3 -38 -17
-73 -44 -35 -27 -65 -47 -67 -45 -2 2 -19 -3 -37 -11 -57 -23 -115 -13 -72 13
25 15 47 57 47 89 0 28 -4 33 -31 39 -76 17 -186 102 -223 173 -30 57 -66 224
-66 302 0 86 17 130 69 181 50 50 120 82 231 104 90 18 356 19 450 1z"/>
</g>
</svg>
